<svg width="20" height="20" viewBox="0 0 20 20" fill="none" xmlns="http://www.w3.org/2000/svg">
<g clip-path="url(#clip0_340_855)">
<path d="M6.66667 19.4333V14.8333L3.23333 17.3667C4.2 18.2667 5.36667 18.9667 6.66667 19.4333ZM13.3333 19.4333C14.6333 18.9667 15.8 18.2667 16.7667 17.3667L13.3333 14.8V19.4333ZM0.566666 13.3333C0.666666 13.6667 0.799999 13.9667 0.966666 14.3L2.26667 13.3333H0.566666ZM17.7333 13.3333L19.0333 14.3C19.1667 14 19.3 13.6667 19.4333 13.3333H17.7333Z" fill="#2A5F9E"/>
<path d="M7.16666 12H0.199997C0.299997 12.4667 0.43333 12.9 0.566664 13.3333H2.26666L0.966664 14.3C1.23333 14.8667 1.53333 15.3667 1.9 15.8667L5.33333 13.3333H6.66666V14L2.76666 16.8667L3.23333 17.3333L6.66666 14.8333V19.4333C7.1 19.6 7.53333 19.7 8 19.8V12H7.16666ZM19.8 12H12V19.8C12.4667 19.7 12.9 19.5667 13.3333 19.4333V14.8333L16.7667 17.3333C17.2333 16.9 17.6333 16.4333 18.0333 15.9333L14.4667 13.3333H16.7333L18.7667 14.8333C18.8667 14.6667 18.9667 14.4667 19.0333 14.3L17.7333 13.3333H19.4333C19.5667 12.9 19.7 12.4667 19.8 12Z" fill="white"/>
<path d="M1.89999 15.8667C2.16666 16.2333 2.43333 16.5667 2.73333 16.9L6.66666 14.0333V13.3667H5.33333L1.89999 15.8667ZM14.5 13.3333L18.0667 15.9333C18.2 15.7667 18.3 15.6 18.4333 15.4333C18.4667 15.4 18.4667 15.3667 18.5 15.3667C18.6 15.2 18.7333 15 18.8333 14.8333L16.7333 13.3333H14.5Z" fill="#ED4C5C"/>
<path d="M13.3333 0.566681V5.16668L16.7667 2.63335C15.8 1.73335 14.6333 1.03335 13.3333 0.566681ZM6.66667 0.566681C5.36667 1.03335 4.2 1.73335 3.23333 2.63335L6.66667 5.20001V0.566681ZM19.4333 6.66668C19.3333 6.33335 19.2 6.03335 19.0333 5.70001L17.7333 6.66668H19.4333ZM2.26667 6.66668L0.966666 5.70001C0.833332 6.03335 0.699999 6.33335 0.566666 6.66668H2.26667Z" fill="#2A5F9E"/>
<path d="M12.8333 8.00001H19.7667C19.6667 7.53334 19.5333 7.10001 19.4 6.66668H17.7L19 5.70001C18.7333 5.13335 18.4333 4.63335 18.0667 4.13335L14.6667 6.66668H13.3333V6.00001L17.2333 3.13335L16.7667 2.66668L13.3333 5.16668V0.566679C12.9 0.400012 12.4667 0.300012 12 0.200012V8.00001H12.8333ZM0.199997 8.00001H8V0.200012C7.53333 0.300012 7.1 0.433346 6.66666 0.566679V5.16668L3.23333 2.66668C2.76666 3.10001 2.36666 3.56668 1.96666 4.06668L5.53333 6.66668H3.26666L1.23333 5.16668C1.13333 5.33335 1.03333 5.53335 0.966664 5.70001L2.26666 6.66668H0.566664C0.43333 7.10001 0.299997 7.53334 0.199997 8.00001Z" fill="white"/>
<path d="M18.1 4.13334C17.8333 3.76667 17.5667 3.43334 17.2667 3.10001L13.3333 5.96667V6.63334H14.6667L18.1 4.13334ZM5.5 6.66667L1.96666 4.06667C1.83333 4.23334 1.73333 4.40001 1.6 4.56667C1.56666 4.60001 1.56666 4.63334 1.53333 4.63334C1.43333 4.80001 1.3 5.00001 1.2 5.16667L3.23333 6.66667H5.5Z" fill="#ED4C5C"/>
<path d="M19.8 8H12V0.2C11.3667 0.0666666 10.7 0 10 0C9.3 0 8.63333 0.0666666 8 0.2V8H0.2C0.0666666 8.63333 0 9.3 0 10C0 10.7 0.0666666 11.3667 0.2 12H8V19.8C8.63333 19.9333 9.3 20 10 20C10.7 20 11.3667 19.9333 12 19.8V12H19.8C19.9333 11.3667 20 10.7 20 10C20 9.3 19.9333 8.63333 19.8 8Z" fill="#ED4C5C"/>
</g>
<defs>
<clipPath id="clip0_340_855">
<rect width="20" height="20" fill="white"/>
</clipPath>
</defs>
</svg>
