<svg width="55" height="50" viewBox="0 0 55 50" fill="none" xmlns="http://www.w3.org/2000/svg">
<g id="Logo 1" clip-path="url(#clip0_276_1088)">
<path id="Vector" d="M27.3789 0.819778C29.1273 4.45452 30.8106 7.90214 32.4389 11.3767C32.7609 12.0629 33.1446 12.282 33.887 12.2753C39.0288 12.2382 44.1723 12.2534 49.314 12.2534C49.6377 12.2534 49.963 12.2534 50.3567 12.427C49.9947 12.6512 49.6327 12.8772 49.269 13.098C45.3868 15.4549 41.5113 17.8235 37.6124 20.1517C37.0185 20.5057 36.9734 20.7873 37.2704 21.3959C39.7395 26.4484 42.1719 31.5212 44.4742 36.7289C42.7075 35.1863 40.9424 33.6454 39.0922 32.0287C38.3681 33.1903 37.6424 32.5041 36.8867 32.0287C35.5186 31.1689 34.1406 30.3226 32.7542 29.4914C32.524 29.3532 32.2337 29.3195 31.9701 29.2369C31.9351 29.3127 31.9 29.3903 31.8667 29.4662C32.0569 29.7662 32.2487 30.0646 32.4389 30.3647C32.4039 30.4018 32.3705 30.4389 32.3355 30.476C32.0569 30.2079 31.7766 29.9433 31.503 29.6701C31.186 29.3549 30.9257 28.9469 30.5554 28.7277C29.8447 28.3113 29.551 27.7567 29.6695 26.9491C29.6845 26.8429 29.6828 26.6845 29.6194 26.6255C29.4293 26.4484 29.2057 26.1888 28.9955 26.1888C28.8103 26.1888 28.5634 26.4619 28.4566 26.6743C28.3515 26.8817 28.3916 27.1633 28.3665 27.4111C28.2931 27.4465 28.2197 27.4802 28.1463 27.5156C28.0345 27.2897 27.8377 27.0688 27.8277 26.8379C27.7876 26.0253 27.8377 25.2076 27.8043 24.395C27.6942 21.7718 27.5624 19.1486 27.3255 16.4917C27.2738 16.6468 27.182 16.7985 27.177 16.9553C27.1253 18.4119 27.0886 19.8685 27.0486 21.3251C26.9985 23.1458 26.9535 24.9666 26.9001 26.7856C26.8767 27.5915 26.0492 27.6909 25.6672 28.1832C25.6522 28.2018 25.6171 28.2068 25.5904 28.2136C22.0469 29.1324 19.4377 31.592 16.6549 33.7601C16.2712 34.0585 15.8775 34.3434 15.3936 34.5204C15.6689 34.1596 15.9425 33.7972 16.2378 33.4094C15.5922 33.0554 15.09 33.0722 14.5228 33.5173C13.1431 34.6013 11.7133 35.6196 10.1401 36.562C12.6859 31.2717 15.2318 25.9831 17.8244 20.5951C13.3132 17.8555 8.83378 15.1345 4.35266 12.4152C4.36768 12.3596 4.38436 12.304 4.39937 12.25C4.66297 12.25 4.92657 12.25 5.19016 12.25C10.3887 12.25 15.5872 12.2298 20.784 12.2753C21.6132 12.282 22.0052 12.0039 22.3456 11.2739C23.7519 8.25111 25.2201 5.25869 26.6665 2.25446C26.8717 1.82962 27.0836 1.40983 27.3789 0.816406V0.819778Z" fill="white"/>
<path id="Vector_2" d="M34.3024 42.3445V49.5078C34.556 49.5685 34.8129 49.6309 35.3034 49.7489H33.0595C33.0562 49.7253 33.0529 49.7034 33.0495 49.6798C33.3098 49.6359 33.5717 49.5921 33.8787 49.5398V40.9081C33.6101 40.8593 33.3582 40.8121 33.0128 40.7497C33.1663 40.6907 33.218 40.6536 33.2664 40.657C35.1449 40.7412 35.1383 40.7429 35.7839 42.5822C36.2577 43.9309 36.7515 45.2746 37.242 46.6182C37.3037 46.7885 37.3972 46.9469 37.569 47.306C37.9377 46.1377 38.2447 45.1599 38.555 44.1838C38.7502 43.5685 38.942 42.9531 39.1489 42.3411C39.5293 41.2127 40.2628 40.6569 41.3494 40.6738C41.2277 40.9587 40.9624 41.2959 40.9574 41.6381C40.9223 44.2479 40.9374 46.8593 40.9374 49.5112C41.2243 49.5752 41.4829 49.6309 41.7398 49.6882C41.7398 49.7084 41.7398 49.7286 41.7398 49.7489H38.7135C39.1656 49.646 39.4292 49.5853 39.7161 49.5213V42.1152C39.6544 42.1001 39.5927 42.0832 39.5293 42.068C38.7569 44.5193 37.9861 46.9689 37.1336 49.6764C36.1893 47.07 35.3285 44.698 34.4693 42.3243C34.4142 42.331 34.3575 42.3395 34.3024 42.3462V42.3445Z" fill="white"/>
<path id="Vector_3" d="M0 49.7523C0.714043 49.7573 0.769098 49.319 0.762425 48.739C0.735731 46.3788 0.7374 44.0186 0.752415 41.6584C0.755751 41.1307 0.730726 40.6974 0.0533864 40.6738H1.96028C1.96028 42.0883 1.95361 43.5263 1.9753 44.9644C1.9753 45.0672 2.2172 45.2712 2.30729 45.251C2.88287 45.1195 3.58857 45.0976 3.99063 44.7402C5.05169 43.7994 4.55953 41.4122 3.26992 40.8138C4.47445 40.5558 5.5672 41.2673 5.75239 42.4305C6.07771 44.4704 5.31862 45.0976 1.95027 45.4735C1.95027 46.7295 1.93025 48.0074 1.9753 49.2836C1.98197 49.4505 2.32898 49.6039 2.50582 49.754H0V49.7523Z" fill="white"/>
<path id="Vector_4" d="M21.6349 44.2596V40.7227H22.6576C22.6576 41.4189 22.6576 42.0832 22.6576 42.7491C22.6576 44.7671 22.6392 46.7867 22.6776 48.8031C22.6843 49.1385 22.9445 49.469 23.093 49.8196C22.7443 49.7842 22.2121 49.7185 21.6783 49.678C21.5098 49.6645 21.3212 49.6814 21.1661 49.7438C20.055 50.1838 18.9989 49.8702 18.3233 48.8789C17.6009 47.8219 17.6326 45.9118 18.3883 44.8952C19.0807 43.9646 20.0733 43.7522 21.6349 44.2596ZM21.6599 46.9638C21.6599 46.4327 21.7684 45.8696 21.6282 45.379C21.4998 44.9272 21.1911 44.3928 20.8074 44.1821C20.2652 43.8837 19.7497 44.2579 19.4043 44.757C18.752 45.701 18.6886 48.2164 19.411 49.0947C19.6913 49.4353 20.2919 49.6797 20.7357 49.6645C21.3429 49.6443 21.6599 49.12 21.6582 48.4743C21.6582 47.9702 21.6582 47.4678 21.6582 46.9638H21.6599Z" fill="white"/>
<path id="Vector_5" d="M49.1706 44.1096C49.4058 44.1602 49.6394 44.2108 49.8746 44.2614C50.2383 42.6143 50.0431 40.9857 49.4342 40.7092H50.9841C50.9841 41.6027 50.9841 42.4356 50.9841 43.2684C50.9841 45.1161 50.9674 46.9638 51.0074 48.8115C51.0141 49.1369 51.2727 49.4572 51.4495 49.8585C50.9657 49.7556 50.3184 49.6191 49.6694 49.4825L49.6811 49.4977C49.7846 49.0998 49.9564 48.7036 49.9747 48.3007C50.0181 47.4072 49.9664 46.5086 49.9898 45.6118C50.0081 44.9307 49.7579 44.4266 49.179 44.0827L49.1689 44.1063L49.1706 44.1096Z" fill="white"/>
<path id="Vector_6" d="M14.2041 48.9951C13.3666 50.0606 12.097 50.2207 11.0577 49.4503C10.0083 48.6731 9.63123 47.0901 10.1684 45.7178C10.6606 44.4601 11.7033 43.7638 13.0613 44.0184C13.6085 44.1212 14.094 44.6337 14.5611 45.0164C14.6329 45.0754 14.5027 45.4868 14.3693 45.6588C14.2909 45.7582 13.9472 45.7903 13.8538 45.7043C13.6969 45.561 13.6169 45.3081 13.5551 45.0872C13.4751 44.8023 13.5151 44.2949 13.3816 44.2511C12.9929 44.1212 12.4674 44.015 12.1321 44.1802C11.0677 44.7046 11.0209 45.7818 11.0393 46.7984C11.0593 47.8335 11.0893 48.9395 12.1771 49.5009C12.9495 49.9004 13.6018 49.479 14.2041 48.9951Z" fill="white"/>
<path id="Vector_7" d="M45.0382 49.7623H42.8877C43.6251 49.7454 43.5851 49.2431 43.5784 48.7221C43.5617 47.4307 43.5934 46.1377 43.555 44.8463C43.5484 44.59 43.3181 44.3422 43.1997 44.1062H44.6011C44.6011 45.4077 44.6011 46.6873 44.6011 47.9669C44.6011 48.2484 44.5427 48.5434 44.6127 48.8064C44.7045 49.1453 44.8964 49.4555 45.0398 49.7623H45.0382Z" fill="white"/>
<path id="Vector_8" d="M27.8927 49.769C27.8927 49.1992 27.8927 48.6985 27.8927 48.1978C27.8927 47.0784 27.9178 45.9572 27.8744 44.8395C27.8644 44.5816 27.6208 44.3321 27.499 44.1028H28.8554V49.4757C29.154 49.5616 29.3742 49.6257 29.5944 49.6898C29.5894 49.7167 29.5844 49.7437 29.5794 49.7707H27.8927V49.769Z" fill="white"/>
<path id="Vector_9" d="M49.671 49.4841C49.0387 50.204 48.2663 50.0657 47.5739 49.7016C46.5462 49.1638 46.1492 48.1961 46.1308 47.0531C46.1141 45.8949 46.3927 44.8277 47.4671 44.2748C47.9393 44.032 48.5966 44.1534 49.1705 44.1095L49.1805 44.0859C48.0994 44.1551 47.6206 44.4433 47.4238 45.5105C47.2636 46.3737 47.2436 47.3043 47.3804 48.1708C47.609 49.6139 48.3347 49.973 49.6827 49.501L49.671 49.4858V49.4841Z" fill="white"/>
<path id="Vector_10" d="M8.84713 49.7757H6.68665C7.46408 49.7352 7.4107 49.1991 7.40236 48.6445C7.384 47.4104 7.42571 46.1747 7.38234 44.9423C7.37233 44.6422 7.12875 44.3505 7.01197 44.0977H8.41003C8.41003 45.6942 8.385 47.2553 8.43004 48.813C8.44005 49.1452 8.70865 49.4705 8.84713 49.7723V49.7757Z" fill="white"/>
<path id="Vector_11" d="M52.8625 44.1147H54.1421C54.1421 45.7315 54.1188 47.296 54.1621 48.8588C54.1705 49.174 54.4291 49.4825 54.5509 49.7472H52.4104C53.1862 49.7506 53.1678 49.2314 53.1561 48.6582C53.1311 47.3954 53.1611 46.1327 53.1328 44.8717C53.1278 44.6205 52.9593 44.3727 52.8625 44.113V44.1147Z" fill="white"/>
<path id="Vector_12" d="M24.3008 44.1011H25.6288C25.6288 45.4009 25.6221 46.6805 25.6304 47.9617C25.6404 49.2649 25.7105 49.3543 26.8867 49.7319C25.4169 50.2174 24.6361 49.6712 24.6211 48.1337C24.6094 47.0396 24.6344 45.9454 24.5994 44.853C24.5911 44.6001 24.4059 44.354 24.3008 44.1011Z" fill="white"/>
<path id="Vector_13" d="M8.89705 42.2665C8.12221 42.2089 7.59243 43.4427 7.59243 43.4427C7.59243 43.4427 7.35832 42.2089 6.47058 42.2836C7.35832 42.2089 7.59243 40.9837 7.59243 40.9837C7.59243 40.9837 8.12221 42.2089 8.89705 42.2665Z" fill="white"/>
<path id="Vector_14" d="M45.2941 42.2665C44.5193 42.2089 43.9895 43.4427 43.9895 43.4427C43.9895 43.4427 43.7554 42.2089 42.8677 42.2836C43.7554 42.2089 43.9895 40.9837 43.9895 40.9837C43.9895 40.9837 44.5193 42.2089 45.2941 42.2665Z" fill="white"/>
<path id="Vector_15" d="M54.7574 42.2665C53.9826 42.2089 53.4528 43.4427 53.4528 43.4427C53.4528 43.4427 53.2187 42.2089 52.3309 42.2836C53.2187 42.2089 53.4528 40.9837 53.4528 40.9837C53.4528 40.9837 53.9826 42.2089 54.7574 42.2665Z" fill="white"/>
</g>
<defs>
<clipPath id="clip0_276_1088">
<rect width="55" height="50" fill="white"/>
</clipPath>
</defs>
</svg>
