<svg width="31" height="13" viewBox="0 0 31 13" fill="none" xmlns="http://www.w3.org/2000/svg">
<g id="logo_npy 2" clip-path="url(#clip0_659_632)">
<path id="Vector" d="M15.145 8.52142V8.82692C15.145 9.80192 15.145 10.7769 15.145 11.7519C15.145 12.5319 14.664 13.0064 13.8905 13.0064C13.5395 13.0064 13.195 13.0064 12.8115 13.0064C12.8115 12.8764 12.8115 12.7724 12.8115 12.6684C12.8115 9.95142 12.7985 7.23442 12.818 4.51092C12.818 3.95842 12.883 3.39942 13 2.85992C13.1885 1.98892 13.702 1.33892 14.5015 0.90992C15.8665 0.18192 17.2835 -0.0130798 18.785 0.42242C19.877 0.74092 20.644 1.42342 21.047 2.48292C21.71 4.22492 21.7035 5.97992 20.9365 7.68292C20.15 9.41192 18.4405 10.1594 16.679 9.61992C16.159 9.46392 15.7365 9.17142 15.405 8.74242C15.34 8.66442 15.2815 8.57992 15.2165 8.50192C15.1905 8.50842 15.171 8.51492 15.145 8.52142ZM19.136 4.97892C19.123 4.32242 19.0515 3.67242 18.707 3.09392C18.3365 2.47642 17.7775 2.19692 17.069 2.20992C16.354 2.22292 15.782 2.54142 15.5025 3.19792C15.0085 4.34842 14.976 5.53142 15.483 6.68842C15.795 7.40342 16.406 7.75442 17.1925 7.74792C17.9595 7.74142 18.486 7.33842 18.8175 6.66242C19.0775 6.12942 19.1295 5.56392 19.136 4.98542V4.97892Z" fill="white"/>
<path id="Vector_2" d="M23.27 12.8441V10.9656C23.4975 10.9656 23.7185 10.9851 23.9395 10.9656C24.219 10.9331 24.505 10.8941 24.7585 10.7901C25.1875 10.6146 25.35 10.2896 25.233 9.84105C25.116 9.39255 24.9535 8.95055 24.7975 8.50855C23.881 5.90855 22.9645 3.31505 22.048 0.715051C22.0155 0.624051 21.996 0.533051 21.957 0.390051C22.295 0.390051 22.6005 0.390051 22.906 0.390051C23.3805 0.390051 23.8615 0.403051 24.336 0.383551C24.57 0.370551 24.6285 0.487551 24.6805 0.676051C25.233 2.61305 25.792 4.55005 26.351 6.48705C26.377 6.58455 26.416 6.68205 26.5135 6.77955C26.5785 6.56505 26.65 6.34405 26.7085 6.12955C27.1765 4.49155 27.6445 2.86005 28.119 1.22205C28.2685 0.695551 28.5675 0.429051 29.0875 0.403051C29.6595 0.377051 30.2315 0.403051 30.8425 0.403051C30.8165 0.500551 30.8035 0.585051 30.7775 0.663051C29.64 4.04955 28.509 7.44255 27.352 10.8226C27.2155 11.2321 26.9945 11.6221 26.7735 11.9991C26.52 12.4216 26.13 12.6881 25.636 12.7986C24.8495 12.9676 24.063 12.9936 23.2635 12.8571L23.27 12.8441Z" fill="white"/>
<path id="Vector_3" d="M2.40501 9.60053C1.62501 9.60053 0.89701 9.60053 0.16901 9.59403C0.11051 9.59403 0.0585102 9.49653 0.0065102 9.44453C-0.0064898 9.42503 0.0065102 9.38603 0.0065102 9.36003C0.0130102 7.44253 0.0130102 5.51853 0.0325102 3.60103C0.0325102 3.29553 0.10401 2.98353 0.16901 2.67803C0.36401 1.83303 0.83851 1.20903 1.62501 0.812532C3.17851 0.0260315 4.73201 -0.0129685 6.31151 0.728032C7.26701 1.17003 7.76101 1.93703 7.93001 2.93803C7.99501 3.34103 8.03401 3.75053 8.04051 4.16003C8.05351 5.86303 8.04051 7.57253 8.05351 9.27553C8.05351 9.52253 8.00151 9.63303 7.73501 9.60703C7.46201 9.58103 7.18901 9.60703 6.91601 9.60703C6.10351 9.60053 5.66801 9.17153 5.66801 8.35903C5.66801 6.87053 5.66801 5.37553 5.66801 3.88703C5.66801 3.67253 5.66151 3.45153 5.61601 3.25003C5.39501 2.28153 4.14701 1.81353 3.19801 2.32053C2.57401 2.64553 2.42451 3.20453 2.41801 3.84153C2.41801 5.63553 2.41801 7.42953 2.41801 9.22353C2.41801 9.34053 2.41801 9.45753 2.41801 9.61353L2.40501 9.60053Z" fill="white"/>
<path id="Vector_4" d="M11.3425 4.75141C10.92 4.75141 10.5105 4.77091 10.1075 4.74491C9.77602 4.71891 9.56152 4.51091 9.48352 4.17941C9.45752 4.06891 9.44452 3.94541 9.44452 3.83491C9.44452 2.66491 9.44452 1.49491 9.44452 0.331407C9.44452 0.0974072 9.50952 -9.27811e-05 9.75652 0.00640722C10.2115 0.0194072 10.673 0.0129072 11.128 0.00640722C11.2905 0.00640722 11.3815 0.0389072 11.3815 0.233907C11.3815 1.70291 11.3815 3.17841 11.375 4.64741C11.375 4.67341 11.362 4.69941 11.3425 4.75791V4.75141Z" fill="white"/>
</g>
<defs>
<clipPath id="clip0_659_632">
<rect width="30.8425" height="13" fill="white"/>
</clipPath>
</defs>
</svg>
